<?xml version="1.0" encoding="UTF-8" standalone="no"?>
<svg width="24px" height="24px" viewBox="0 0 24 24" version="1.1" xmlns="http://www.w3.org/2000/svg" xmlns:xlink="http://www.w3.org/1999/xlink">
  <g stroke="none" stroke-width="1" fill="none" fill-rule="evenodd">
    <g transform="translate(-384.000000, -66.000000)">
      <g transform="translate(10.000000, 66.000000)">
        <g transform="translate(374.000000, 0.000000)">
          <polygon fill-opacity="0" fill="#FFCF57" points="0 0 24 0 24 24 0 24"></polygon>
          <path d="M20,18.222 L20,19 C20,20.105 19.105,21 18,21 L6,21 C4.895,21 4,20.105 4,19 L4,3 L6,3 L6,16 L7,16 L7,3 L18,3 C19.105,3 20,3.895 20,5 L20,16 C20,17.105 19.105,18 18,18 L18,18 L18,18 L6,18 C5.448,18 5,18.448 5,19 C5,19.552 5.448,20 6,20 L18,20 C18.552,20 19,19.552 19,19 C19,18.939 19.007,18.885 18.996,18.827 C19.381,18.693 19.703,18.489 20,18.222 L20,18.222 Z M10,10 L17,10 L17,7 L10,7 L10,10 L10,10 Z" fill="#6f7f88"></path>
        </g>
      </g>
    </g>
  </g>
</svg>
