<?xml version="1.0" encoding="UTF-8" standalone="no"?>
<svg fill="#DCE1E5" xmlns="http://www.w3.org/2000/svg" viewBox="0 0 34 42" id="maximiseIcon">
  <path d="M17,40H12.109L1.272,30.188,3.5,23.995H30.66l0.87,1.854,1.205,4.334L21.891,40H17Z"/>
  <path d="M3.5,24A3.506,3.506,0,1,1,0,27.506,3.5,3.5,0,0,1,3.5,24ZM30.5,24a3.506,3.506,0,1,1-3.5,3.506A3.5,3.5,0,0,1,30.5,24ZM17,28.007a7,7,0,1,1-6.991,7A6.994,6.994,0,0,1,17,28.007Z"/>
  <path d="M17,2h4.891l10.837,9.812L30.5,18.005H3.34L2.469,16.151,1.264,11.817,12.109,2H17Z"/>
  <path d="M30.5,11A3.5,3.5,0,1,1,27,14.5,3.5,3.5,0,0,1,30.5,11Zm-27,0A3.5,3.5,0,1,1,0,14.5,3.5,3.5,0,0,1,3.5,11ZM17,0a7,7,0,1,1-7,7A7,7,0,0,1,17,0Z"/>
</svg>
