<?xml version="1.0" encoding="UTF-8" standalone="no"?>
<svg fill="#8a9ca8" xmlns="http://www.w3.org/2000/svg" viewBox="0 0 34 42" id="minimiseIcon">
  <path d="M17,16H12.109L1.272,6.187,3.5-.005H30.66l0.87,1.854,1.205,4.334L21.891,16H17Z"/>
  <path d="M3.5,0A3.5,3.5,0,1,1,0,3.5,3.5,3.5,0,0,1,3.5,0Zm27,0A3.5,3.5,0,1,1,27,3.5,3.5,3.5,0,0,1,30.5,0ZM17,4a7,7,0,1,1-7,7A7,7,0,0,1,17,4Z"/>
  <path d="M17,26h4.891l10.837,9.812L30.5,42.005H3.34L2.469,40.151,1.264,35.817,12.109,26H17Z"/>
  <path d="M30.5,35A3.5,3.5,0,1,1,27,38.5,3.5,3.5,0,0,1,30.5,35Zm-27,0A3.5,3.5,0,1,1,0,38.5,3.5,3.5,0,0,1,3.5,35ZM17,24a7,7,0,1,1-7,7A7,7,0,0,1,17,24Z"/>
</svg>
