<?xml version="1.0" encoding="UTF-8" standalone="no"?>
<svg width="24px" height="24px" viewBox="0 0 24 24" version="1.1" xmlns="http://www.w3.org/2000/svg" xmlns:xlink="http://www.w3.org/1999/xlink">
    <!-- Generator: sketchtool 39.1 (31720) - http://www.bohemiancoding.com/sketch -->
    <title>D87A6C31-8DA3-4DC5-A674-20B7C19E7702</title>
    <desc>Created with sketchtool.</desc>
    <defs></defs>
    <g id="Account-Split-Version" stroke="none" stroke-width="1" fill="none" fill-rule="evenodd">
        <g id="WebClipper_Account_Split_Assets" transform="translate(-23.000000, -50.000000)">
            <g id="Webclipper_Business_s_24_-2F373D" transform="translate(23.000000, 50.000000)">
                <ellipse id="Oval" fill="#080B0E" cx="12" cy="12" rx="12" ry="12"></ellipse>
                <path d="M14,18 L14,10 C14,9.448 14.448,9 15,9 L17,9 C17.552,9 18,9.448 18,10 L18,18 L14,18 L14,18 L14,18 Z M17,11 L15,11 L15,13 L17,13 L17,11 L17,11 L17,11 Z M17,14 L15,14 L15,16 L17,16 L17,14 L17,14 L17,14 Z M9,18 L9,14 L7,14 L7,18 L6,18 L6,7 C6,6.448 6.448,6 7,6 L12,6 C12.552,6 13,6.448 13,7 L13,18 L9,18 L9,18 L9,18 Z M9,8 L7,8 L7,10 L9,10 L9,8 L9,8 L9,8 Z M9,11 L7,11 L7,13 L9,13 L9,11 L9,11 L9,11 Z M12,8 L10,8 L10,10 L12,10 L12,8 L12,8 L12,8 Z M12,11 L10,11 L10,13 L12,13 L12,11 L12,11 L12,11 Z M12,14 L10,14 L10,16 L12,16 L12,14 L12,14 L12,14 Z" id="icon" fill="#FFFFFF"></path>
            </g>
        </g>
    </g>
</svg>