<?xml version="1.0" encoding="UTF-8" standalone="no"?>
<svg width="24px" height="24px" viewBox="0 0 24 24" version="1.1" xmlns="http://www.w3.org/2000/svg" xmlns:xlink="http://www.w3.org/1999/xlink">
    <!-- Generator: sketchtool 39.1 (31720) - http://www.bohemiancoding.com/sketch -->
    <title>87BA7877-F498-47EF-9AAB-1AD6FE37ABC0</title>
    <desc>Created with sketchtool.</desc>
    <defs></defs>
    <g id="Account-Split-Version" stroke="none" stroke-width="1" fill="none" fill-rule="evenodd">
        <g id="WebClipper_Account_Split_Assets" transform="translate(-65.000000, -50.000000)">
            <g id="Web_Settings_S_24_2F373D" transform="translate(65.000000, 50.000000)">
                <circle id="Oval-2" fill="#080B0E" cx="12" cy="12" r="12"></circle>
                <path d="M16.7757467,13.2928778 C16.6722605,13.7068225 16.5002497,14.1200679 16.2932774,14.465488 L17.309959,15.9478574 C17.4484068,16.1723105 17.430926,16.4820697 17.2239537,16.6722605 L16.6722605,17.2239537 C16.482769,17.430926 16.1723105,17.4477075 15.9485566,17.309959 L14.465488,16.2925782 C14.1032864,16.4995505 13.7243033,16.6722605 13.2928778,16.7757467 L12.9656378,18.5343123 C12.9138947,18.7930277 12.6726601,18.9993008 12.3964639,18.9993008 L11.6035361,18.9993008 C11.3280392,18.9993008 11.0861053,18.7930277 11.0343622,18.5343123 L10.7071222,16.7757467 C10.2756967,16.6722605 9.89671362,16.4995505 9.53451204,16.2925782 L8.06892418,17.309959 C7.84517031,17.4477075 7.51723105,17.430926 7.32773949,17.2239537 L6.77604635,16.6722605 C6.56907402,16.4820697 6.55159325,16.1723105 6.69004095,15.9478574 L7.70742184,14.465488 C7.50044951,14.1200679 7.32773949,13.7068225 7.22425332,13.2928778 L5.46568774,12.9656378 C5.20697233,12.9138947 5,12.6719608 5,12.3964639 L5,11.6035361 C5,11.3273399 5.20697233,11.0861053 5.46568774,11.0343622 L7.22425332,10.7064229 C7.32773949,10.309959 7.50044951,9.89671362 7.70742184,9.53451204 L6.69004095,8.06892418 C6.55159325,7.84447108 6.56907402,7.51723105 6.77604635,7.32773949 L7.32773949,6.77604635 C7.51723105,6.56907402 7.84517031,6.55159325 8.06892418,6.68934172 L9.53451204,7.70672261 C9.89671362,7.49975027 10.2756967,7.32773949 10.7071222,7.22425332 L11.0343622,5.46568774 C11.0861053,5.20697233 11.3280392,5 11.6035361,5 L12.3964639,5 C12.6726601,5 12.9138947,5.20697233 12.9656378,5.46568774 L13.2928778,7.22425332 C13.7243033,7.32773949 14.1032864,7.49975027 14.465488,7.70672261 L15.9485566,6.68934172 C16.1723105,6.55159325 16.482769,6.56907402 16.6722605,6.77604635 L17.2239537,7.32773949 C17.430926,7.51723105 17.4484068,7.84447108 17.309959,8.06892418 L16.2932774,9.53451204 C16.5002497,9.89671362 16.6722605,10.309959 16.7757467,10.7064229 L18.5343123,11.0343622 C18.7930277,11.0861053 19,11.3273399 19,11.6035361 L19,12.3964639 C19,12.6719608 18.7930277,12.9138947 18.5343123,12.9656378 L16.7757467,13.2928778 L16.7757467,13.2928778 Z M12.0006992,10.5274198 C11.1902907,10.5274198 10.5295175,11.1874938 10.5295175,11.9986015 C10.5295175,12.8097093 11.1902907,13.4697832 12.0006992,13.4697832 C12.811807,13.4697832 13.4718809,12.8097093 13.4718809,11.9986015 C13.4718809,11.1874938 12.811807,10.5274198 12.0006992,10.5274198 L12.0006992,10.5274198 Z" id="icon" fill="#899CA9"></path>
            </g>
        </g>
    </g>
</svg>