<?xml version="1.0" encoding="UTF-8" standalone="no"?>
<svg width="24px" height="24px" viewBox="0 0 24 24" version="1.1" xmlns="http://www.w3.org/2000/svg" xmlns:xlink="http://www.w3.org/1999/xlink">
    <!-- Generator: sketchtool 39.1 (31720) - http://www.bohemiancoding.com/sketch -->
    <title>6A3915F6-B3E2-4A16-82CF-839ACA365FC9</title>
    <desc>Created with sketchtool.</desc>
    <defs></defs>
    <g id="Account-Split-Version" stroke="none" stroke-width="1" fill="none" fill-rule="evenodd">
        <g id="WebClipper_Account_Split_Assets" transform="translate(-107.000000, -50.000000)">
            <g id="Webclipper_personal_default" transform="translate(107.000000, 50.000000)">
                <path d="M12,24 C18.627417,24 24,18.627417 24,12 C24,5.372583 18.627417,0 12,0 C5.372583,0 0,5.372583 0,12 C0,18.627417 5.372583,24 12,24 Z" id="Oval-3" fill="#080B0E"></path>
                <path d="M14.3202044,10.4407422 C13.5042498,11.4967569 13.7442364,12.5047709 13.7442364,12.5047709 C13.7442364,13.4974513 18,13.0007778 18,15.4974791 L18,17.0015 L6,17.0015 L6,15.4974791 C6,13.0007778 10.2557636,13.4974513 10.2557636,12.5047709 C10.2557636,12.5047709 10.4957502,11.4967569 9.66379645,10.4407422 C8.87984001,10.1207378 9.00783289,9.25672578 9.00783289,9.19272489 C9.00783289,9.19272489 9.023832,8.696718 9.50380534,8.56871623 L9.50380534,7.49670134 C9.50380534,6.12068223 10.6237431,5 11.9996667,5 C13.3762568,5 14.4961947,6.12068223 14.4961947,7.49670134 L14.4961947,8.56871623 C14.976168,8.696718 15.0081662,9.00072223 15.0081662,9.00072223 C15.0081662,9.00072223 15.12016,10.1207378 14.3202044,10.4407422 L14.3202044,10.4407422 L14.3202044,10.4407422 Z" id="icon" fill="#899CA9"></path>
            </g>
        </g>
    </g>
</svg>