<?xml version="1.0" encoding="UTF-8" standalone="no"?>
<svg width="8px" height="8px" viewBox="0 0 8 8" version="1.1" xmlns="http://www.w3.org/2000/svg" xmlns:xlink="http://www.w3.org/1999/xlink">
    <g stroke="none" stroke-width="1" fill="none" fill-rule="evenodd">
        <g transform="translate(-122.000000, -391.000000)" fill="#6F7F88">
            <path d="M122.88,395.31 C123.05,395.31 123.19,395.17 123.19,395 C123.19,393.45 124.45,392.19 126,392.19 C126.97,392.19 127.82,392.68 128.33,393.43 L127.88,393.43 C127.7,393.43 127.56,393.57 127.56,393.75 C127.56,393.92 127.7,394.07 127.88,394.07 L129.12,394.07 C129.29,394.07 129.44,393.92 129.44,393.75 L129.44,392.51 C129.44,392.33 129.29,392.19 129.12,392.19 C128.94,392.19 128.8,392.33 128.8,392.51 L128.8,393.02 C128.17,392.14 127.16,391.56 126,391.56 C124.1,391.56 122.56,393.1 122.56,395 C122.56,395.17 122.7,395.31 122.88,395.31 L122.88,395.31 Z M129.12,394.69 C128.95,394.69 128.81,394.83 128.81,395 C128.81,396.55 127.55,397.81 126,397.81 C125.03,397.81 124.18,397.32 123.67,396.57 L124.12,396.57 C124.3,396.57 124.44,396.43 124.44,396.25 C124.44,396.08 124.3,395.93 124.12,395.93 L122.88,395.93 C122.71,395.93 122.56,396.08 122.56,396.25 L122.56,397.49 C122.56,397.67 122.71,397.81 122.88,397.81 C123.06,397.81 123.2,397.67 123.2,397.49 L123.2,396.98 C123.83,397.86 124.84,398.44 126,398.44 C127.9,398.44 129.44,396.9 129.44,395 C129.44,394.83 129.3,394.69 129.12,394.69 L129.12,394.69 Z"></path>
        </g>
    </g>
</svg>
